HIERARCHY
ROOT Pelvis
{
	OFFSET 0.000000 0.000000 0.000000
	CHANNELS 6 Xposition Yposition Zposition Zrotation Yrotation Xrotation 
	JOINT Left_hip
	{
		OFFSET 0.067986 -0.089946 -0.007639
		CHANNELS 3 Zrotation Yrotation Xrotation
		JOINT Left_knee
		{
			OFFSET 0.036308 -0.388288 -0.004016
			CHANNELS 3 Zrotation Yrotation Xrotation
			JOINT Left_ankle
			{
				OFFSET -0.012264 -0.413250 -0.042878
				CHANNELS 3 Zrotation Yrotation Xrotation
				JOINT Left_foot
				{
					OFFSET 0.024043 -0.058563 0.118570
					CHANNELS 3 Zrotation Yrotation Xrotation
					End Site
					{
						OFFSET 0.000000 0.000000 0.000000
					}
				}
			}
		}
	}
	JOINT Right_hip
	{
		OFFSET -0.065648 -0.089374 -0.003858
		CHANNELS 3 Zrotation Yrotation Xrotation
		JOINT Right_knee
		{
			OFFSET -0.042132 -0.395021 -0.006361
			CHANNELS 3 Zrotation Yrotation Xrotation
			JOINT Right_ankle
			{
				OFFSET 0.014805 -0.413264 -0.041054
				CHANNELS 3 Zrotation Yrotation Xrotation
				JOINT Right_foot
				{
					OFFSET -0.021758 -0.049013 0.121832
					CHANNELS 3 Zrotation Yrotation Xrotation
					End Site
					{
						OFFSET 0.000000 0.000000 0.000000
					}
				}
			}
		}
	}
	JOINT Spine1
	{
		OFFSET -0.002755 0.104406 -0.022277
		CHANNELS 3 Zrotation Yrotation Xrotation
		JOINT Spine2
		{
			OFFSET 0.004136 0.129393 -0.002186
			CHANNELS 3 Zrotation Yrotation Xrotation
			JOINT Spine3
			{
				OFFSET 0.001906 0.049304 0.025578
				CHANNELS 3 Zrotation Yrotation Xrotation
				JOINT Neck
				{
					OFFSET -0.004620 0.210958 -0.044063
					CHANNELS 3 Zrotation Yrotation Xrotation
					JOINT Head
					{
						OFFSET 0.003833 0.067393 0.052435
						CHANNELS 3 Zrotation Yrotation Xrotation
						End Site
						{
							OFFSET 0.000000 0.000000 0.000000
						}
					}
				}
				JOINT Left_collar
				{
					OFFSET 0.070771 0.116689 -0.037192
					CHANNELS 3 Zrotation Yrotation Xrotation
					JOINT Left_shoulder
					{
						OFFSET 0.080652 0.031596 -0.005617
						CHANNELS 3 Zrotation Yrotation Xrotation
						JOINT Left_elbow
						{
							OFFSET 0.262654 -0.015020 -0.027939
							CHANNELS 3 Zrotation Yrotation Xrotation
							JOINT Left_wrist
							{
								OFFSET 0.250438 0.010062 -0.000990
								CHANNELS 3 Zrotation Yrotation Xrotation
								JOINT Left_palm
								{
									OFFSET 0.081198 -0.010037 -0.013706
									CHANNELS 3 Zrotation Yrotation Xrotation
									End Site
									{
										OFFSET 0.000000 0.000000 0.000000
									}
								}
							}
						}
					}
				}
				JOINT Right_collar
				{
					OFFSET -0.072972 0.115556 -0.040762
					CHANNELS 3 Zrotation Yrotation Xrotation
					JOINT Right_shoulder
					{
						OFFSET -0.082917 0.031841 -0.006673
						CHANNELS 3 Zrotation Yrotation Xrotation
						JOINT Right_elbow
						{
							OFFSET -0.252882 -0.013790 -0.020410
							CHANNELS 3 Zrotation Yrotation Xrotation
							JOINT Right_wrist
							{
								OFFSET -0.255570 0.009163 -0.005138
								CHANNELS 3 Zrotation Yrotation Xrotation
								JOINT Right_palm
								{
									OFFSET -0.080804 -0.007282 -0.010415
									CHANNELS 3 Zrotation Yrotation Xrotation
									End Site
									{
										OFFSET 0.000000 0.000000 0.000000
									}
								}
							}
						}
					}
				}
			}
		}
	}
}
MOTION
Frames: 5
Frame Time: 0.100000
0.000000 0.000000 0.000000 174.479204 23.555559 -18.606952 7.592637 6.129670 10.461621 -4.916403 -16.247674 -3.602755 -6.289221 12.205504 -7.835958 3.165480 0.318938 1.417951 -5.367013 -5.986557 8.546660 5.523977 11.505016 0.919129 13.785551 -11.475306 -9.367055 -10.470904 8.547271 1.292409 1.730127 1.483654 10.015021 -0.028111 -2.621357 1.259551 1.166633 -0.008854 2.275610 -0.852831 1.926863 -1.965289 1.521256 -0.706607 -8.497141 -6.810433 2.269388 -7.492619 -3.350101 4.157439 -13.526383 3.030312 -6.511710 -10.249984 0.737416 -7.380782 18.366618 -7.038749 -2.174695 -12.997118 6.362423 -0.800849 -5.874409 3.860777 -5.674205 -11.009818 -4.749784 6.540315 -11.061270 0.494292 3.068433 15.544291 8.237960 4.461118 -4.202456 
0.000681 0.000014 -0.000341 174.446573 23.963231 -18.517278 7.548901 6.071238 10.268975 -4.891869 -16.362966 -3.722630 -6.285002 12.042743 -7.594784 3.191566 0.364748 1.314203 -5.400318 -6.106632 8.583962 5.496155 11.361737 0.657748 13.837024 -11.635491 -9.333139 -10.710217 8.660926 1.227863 1.718607 1.540400 9.936099 -0.077185 -2.644276 1.168139 1.145234 -0.035327 2.270432 -0.865186 1.700029 -1.917071 1.694139 -0.874220 -8.436613 -6.778486 2.223987 -7.515525 -3.624471 3.899949 -13.662186 3.024432 -6.105211 -10.526120 0.939614 -6.987011 18.132968 -7.111742 -2.242611 -12.934794 6.317791 -0.849692 -5.920890 4.241307 -5.685780 -11.032801 -4.849873 6.370122 -11.201722 0.457585 2.915863 15.575256 8.307983 4.533606 -4.222824 
0.001062 0.000017 -0.000562 174.388774 24.222766 -18.688386 7.533236 6.012197 10.271024 -4.868533 -16.446084 -3.575062 -6.283993 11.976719 -7.595173 3.140766 0.400218 1.301205 -5.376699 -6.174146 8.744574 5.465766 11.209259 0.673149 13.728252 -11.699403 -9.334578 -10.547115 8.610151 1.273965 1.732528 1.578616 10.054899 -0.082051 -2.632873 1.216048 1.170780 -0.024594 2.272775 -0.800807 1.659909 -1.893330 1.772706 -0.848681 -8.460842 -6.855621 2.179253 -7.497484 -3.650979 3.868985 -13.675988 3.109156 -6.290703 -10.628414 0.816395 -7.052184 17.921893 -6.997098 -2.203325 -12.801981 6.335681 -0.789662 -5.884406 4.274059 -5.751721 -11.026666 -4.885776 6.438113 -11.280670 0.547667 2.939056 15.467652 8.197782 4.506330 -4.120103 
0.000633 -0.000114 0.000133 174.373676 24.525393 -18.950881 7.539453 5.985667 10.601579 -4.877508 -16.625213 -3.660607 -6.291405 11.867906 -7.550448 3.054063 0.436228 1.243854 -5.497599 -6.275247 9.183280 5.472354 11.098307 0.579320 13.583692 -11.732000 -9.353294 -10.257013 8.537410 1.356245 1.740956 1.584592 9.957289 -0.094988 -2.677678 1.263646 1.144070 -0.035183 2.305829 -0.644847 1.484523 -1.435806 1.864125 -0.948407 -8.171572 -6.855562 2.196340 -7.465258 -3.641679 3.711571 -13.726905 3.060395 -6.324694 -10.694338 0.605279 -7.216694 17.624468 -6.800745 -2.085654 -12.543630 6.294346 -0.797766 -5.897598 4.268891 -5.679735 -11.009400 -4.859799 6.482962 -11.187680 0.689315 2.959170 15.434147 7.966849 4.453603 -3.905860 
0.000426 0.000017 -0.000217 174.369095 24.661743 -19.058324 7.500909 5.910526 10.596001 -4.928147 -16.732013 -3.498596 -6.265056 11.848108 -7.615866 3.042573 0.444168 1.221772 -5.557860 -6.278496 9.241466 5.499471 11.059355 0.702929 13.545155 -11.776696 -9.433045 -10.205847 8.518328 1.372939 1.755482 1.604336 9.958875 -0.055314 -2.683967 1.248570 1.152564 -0.044703 2.316358 -0.587346 1.369182 -1.333169 1.875934 -1.070789 -8.039932 -6.885203 2.206722 -7.436961 -3.709829 3.692517 -13.685901 2.979954 -6.241956 -10.632814 0.574767 -7.248210 17.557708 -6.768012 -2.056892 -12.510197 6.320467 -0.787077 -5.919249 4.254396 -5.643355 -10.992971 -4.865006 6.523711 -11.167985 0.683417 2.972101 15.432467 7.902017 4.443385 -3.863145 
